<svg width="70" height="40" viewBox="0 0 70 40" fill="none" xmlns="http://www.w3.org/2000/svg">
<rect width="69.8183" height="40" fill="white"/>
<path d="M42.1261 8.00107C42.5309 7.98553 42.9239 8.1395 43.2104 8.42596L53.0909 18.3066L59.3353 12.0624C59.9033 11.4944 60.8242 11.4944 61.3923 12.0624C61.9603 12.6305 61.9603 13.5514 61.3923 14.1194L54.1195 21.3922C53.5515 21.9602 52.6305 21.9602 52.0625 21.3922L42.264 11.5937L32.3772 23.1284C32.1135 23.436 31.7335 23.6197 31.3286 23.6353C30.9238 23.6508 30.5308 23.4969 30.2443 23.2104L20.2745 13.2405L10.3858 21.4811C9.76863 21.9954 8.85147 21.9119 8.33719 21.2948C7.82292 20.6777 7.90624 19.7606 8.52335 19.2463L19.4324 10.1553L19.4875 10.1116C20.0633 9.6766 20.8769 9.72895 21.3922 10.2443L31.1905 20.0425L41.0775 8.50794C41.3412 8.20033 41.7212 8.01663 42.1261 8.00107Z" fill="#5A7A00"/>
<path opacity="0.3" d="M42.154 17.8187C42.3564 17.811 42.553 17.888 42.6962 18.0312L53.091 28.426L59.8495 21.6676C60.1335 21.3835 60.5941 21.3835 60.8781 21.6676C61.1621 21.9516 61.1621 22.4121 60.8781 22.6962L53.6053 29.9688C53.3213 30.2528 52.8609 30.2528 52.5769 29.9688L42.2229 19.615L31.825 31.746C31.6932 31.8998 31.5032 31.9917 31.3008 31.9995C31.0984 32.0072 30.9018 31.9303 30.7585 31.7871L20.319 21.3475L9.92012 30.0133C9.61156 30.2704 9.15297 30.2288 8.89584 29.9202C8.6387 29.6117 8.68049 29.1531 8.98906 28.896L19.8981 19.805L19.9256 19.7831C20.2135 19.5656 20.6202 19.5918 20.8779 19.8494L31.2317 30.2031L41.6298 18.0722L41.6552 18.044C41.7854 17.9072 41.9642 17.826 42.154 17.8187Z" fill="#5A7A00"/>
</svg>
